<svg width="24" height="23" viewBox="0 0 24 23" fill="none" xmlns="http://www.w3.org/2000/svg">
<g clip-path="url(#clip0_1_211)">
<path d="M16.19 2.08594H7.81C4.17 2.08594 2 4.12804 2 7.55349V15.4302C2 18.865 4.17 20.9071 7.81 20.9071H16.18C19.82 20.9071 21.99 18.865 21.99 15.4396V7.55349C22 4.12804 19.83 2.08594 16.19 2.08594ZM16.37 13.9715L14.15 16.0607C13.61 16.5688 12.91 16.8135 12.21 16.8135C11.51 16.8135 10.8 16.5594 10.27 16.0607C9.2 15.0537 9.2 13.4069 10.27 12.3999L11.68 11.0731C11.97 10.8001 12.45 10.8001 12.74 11.0731C13.03 11.346 13.03 11.7977 12.74 12.0706L11.33 13.3975C10.84 13.8586 10.84 14.602 11.33 15.0631C11.82 15.5243 12.61 15.5243 13.1 15.0631L15.32 12.974C15.93 12.3999 16.27 11.6283 16.27 10.8096C16.27 9.99083 15.93 9.22858 15.32 8.64512C14.09 7.48762 11.95 7.48762 10.72 8.64512L8.29 10.9319C7.25 11.9106 7.25 13.5104 8.29 14.4985C8.58 14.7714 8.58 15.2231 8.29 15.496C8 15.7689 7.52 15.7689 7.23 15.496C5.6 13.9621 5.6 11.4683 7.23 9.93437L9.65 7.65701C10.55 6.81005 11.74 6.34893 13.01 6.34893C14.28 6.34893 15.47 6.81005 16.37 7.65701C17.27 8.50396 17.76 9.62382 17.76 10.819C17.76 12.0141 17.27 13.134 16.37 13.9715Z" fill="#292D32"/>
</g>
<defs>
<clipPath id="clip0_1_211">
<rect width="24" height="22.5854" fill="white" transform="translate(0 0.203857)"/>
</clipPath>
</defs>
</svg>
