<svg width="18" height="16" viewBox="0 0 18 16" fill="none" xmlns="http://www.w3.org/2000/svg">
<path d="M16.7151 5.87526L16.716 5.86107C16.7208 5.78249 16.6994 5.70186 16.6514 5.63016C16.608 5.57196 16.5444 5.52648 16.4685 5.50338L16.46 5.50082L16.4517 5.49796L14.853 4.94967C14.8521 4.94938 14.8513 4.94909 14.8504 4.9488C14.2669 4.75521 13.7374 4.43021 13.3054 3.99905C12.8663 3.57787 12.5302 3.06273 12.3267 2.49329L12.324 2.48574L12.324 2.48572L11.7863 0.901566C11.7607 0.835279 11.7122 0.776057 11.6453 0.735249L11.6367 0.730011L11.6367 0.729926C11.5609 0.681588 11.4703 0.656009 11.377 0.658195L11.3681 0.658404V0.658324C11.2837 0.6588 11.2037 0.68706 11.1409 0.735993L11.1299 0.744576L11.1298 0.744419C11.0675 0.790297 11.0249 0.852812 11.0056 0.920572L11.0019 0.933575L10.9975 0.946359L10.4657 2.48803L10.4639 2.4933L10.4639 2.49329C10.2603 3.06287 9.92405 3.57813 9.48484 3.99936C9.04934 4.43249 8.51538 4.75796 7.92738 4.95019C7.92731 4.95021 7.92724 4.95023 7.92716 4.95026L6.32363 5.47519L6.31331 5.47857L6.31327 5.47845C6.22828 5.50425 6.15686 5.55526 6.10794 5.62099C6.05918 5.68825 6.03411 5.76677 6.03411 5.84583C6.03411 5.92401 6.05863 6.00167 6.10632 6.06842C6.15493 6.1313 6.22441 6.18006 6.30661 6.2052L6.31519 6.20783L6.31517 6.2079L7.92749 6.7329L7.93336 6.73481L7.93334 6.73485C8.51123 6.93093 9.0359 7.25451 9.46592 7.68136C9.90941 8.09519 10.2465 8.60673 10.448 9.17442L10.4495 9.17864L10.4494 9.17865L10.9897 10.7453L10.9925 10.7533L10.9924 10.7533C11.0107 10.8094 11.0429 10.8618 11.0875 10.9058C11.1321 10.9497 11.188 10.9838 11.251 11.0041C11.3141 11.0244 11.3816 11.03 11.4478 11.0201C11.5139 11.0103 11.5756 10.9855 11.6282 10.9488L16.7151 5.87526ZM16.7151 5.87526L16.7151 5.88948M16.7151 5.87526L16.7151 5.88948M16.7151 5.88948C16.7147 5.96782 16.6892 6.04556 16.64 6.11179C16.5907 6.17798 16.5197 6.22985 16.4352 6.25759C16.4348 6.25769 16.4345 6.2578 16.4342 6.2579L14.8241 6.77385L14.8222 6.77447M16.7151 5.88948L14.8222 6.77447M14.8222 6.77447C14.2438 6.9624 13.7173 7.27927 13.2849 7.701M14.8222 6.77447L13.2849 7.701M13.2849 7.701C12.8536 8.1218 12.5279 8.63547 12.3348 9.20188M13.2849 7.701L12.3348 9.20188M12.3348 9.20188L11.7798 10.7536C11.7796 10.754 11.7795 10.7544 11.7793 10.7548C11.7514 10.8305 11.6996 10.8987 11.6283 10.9487L12.3348 9.20188ZM6.87249 12.3327L6.87246 12.3326L6.86327 12.3357C6.47024 12.4715 6.11302 12.693 5.81923 12.9843C5.52337 13.2699 5.29509 13.6165 5.15174 13.9999L5.15171 13.9998L5.14976 14.0052L4.74668 15.1219L4.74666 15.1219L4.74516 15.1262C4.72414 15.1861 4.68464 15.2409 4.62936 15.2824C4.56991 15.3214 4.49827 15.3432 4.42368 15.3432C4.34908 15.3432 4.27744 15.3214 4.218 15.2824C4.16336 15.2414 4.12413 15.1874 4.10294 15.1283L3.72671 14.0149L3.72438 14.008L3.72186 14.0012C3.57901 13.6159 3.34938 13.2678 3.05098 12.9823C2.75694 12.6946 2.40203 12.4745 2.01211 12.3368L2.00441 12.3341L1.99663 12.3317L0.845521 11.9671C0.776309 11.9425 0.718584 11.899 0.678391 11.8446L0.677102 11.8428C0.637749 11.79 0.616302 11.7288 0.613483 11.6669C0.616374 11.6045 0.638127 11.543 0.677993 11.49C0.719582 11.4347 0.77935 11.391 0.850736 11.3673L1.99766 11.0013L2.00647 10.9985L2.01517 10.9954C2.40322 10.8556 2.75671 10.6356 3.05104 10.3496C3.34542 10.0636 3.57369 9.71818 3.71931 9.3366L3.71948 9.33667L3.72398 9.32386L4.1099 8.22386L4.11002 8.2239L4.11348 8.2133C4.13281 8.154 4.1701 8.09929 4.223 8.057C4.28023 8.01598 4.35034 7.9914 4.42453 7.98824C4.4972 7.98515 4.56821 8.00284 4.62871 8.03772C4.68532 8.07786 4.72928 8.13182 4.75683 8.19396L5.13696 9.31845L5.14005 9.32759L5.14349 9.3366C5.2891 9.71818 5.51738 10.0636 5.81175 10.3496C6.10608 10.6356 6.45958 10.8556 6.84763 10.9954L6.8476 10.9955L6.85583 10.9983L8.00504 11.3899L8.0126 11.3925L8.02025 11.3948C8.07954 11.413 8.12778 11.4491 8.1592 11.4942L8.17189 11.5124L8.18614 11.5294C8.224 11.5746 8.24511 11.6268 8.25007 11.6784C8.24751 11.7362 8.22871 11.7934 8.19422 11.8438C8.15313 11.8951 8.09601 11.9356 8.02846 11.9582C8.02803 11.9584 8.0276 11.9585 8.02716 11.9587L6.87249 12.3327Z" stroke="white"/>
</svg>
