<svg width="24" height="24" viewBox="0 0 24 24" fill="none" xmlns="http://www.w3.org/2000/svg">
<g clip-path="url(#clip0_1_219)">
<path d="M8.93 2.90308H5.02C3 2.90308 2 3.90308 2 5.92308V9.84308C2 11.9031 3 12.9031 5.02 12.8531H8.94C11 12.9031 12 11.9031 11.95 9.83308V5.92308C12 3.90308 11 2.90308 8.93 2.90308ZM9.01 10.6631C8.33 10.6631 7.67 10.4031 7.12 9.94308C6.5 10.3931 5.75 10.6631 4.94 10.6631C4.53 10.6631 4.19 10.3231 4.19 9.91308C4.19 9.50308 4.53 9.16308 4.94 9.16308C5.96 9.16308 6.81 8.46308 7.12 7.50308H4.94C4.53 7.50308 4.19 7.16308 4.19 6.75308C4.19 6.34308 4.53 6.00308 4.94 6.00308H6.23C6.27 5.62308 6.58 5.32308 6.97 5.32308C7.36 5.32308 7.67 5.62308 7.71 6.00308H7.97C7.98 6.00308 7.99 6.00308 7.99 6.00308H8.01H9C9.41 6.00308 9.75 6.34308 9.75 6.75308C9.75 7.16308 9.42 7.50308 9 7.50308H8.67C8.58 7.98308 8.39 8.43308 8.14 8.84308C8.41 9.04308 8.7 9.16308 9.01 9.16308C9.42 9.16308 9.76 9.50308 9.76 9.91308C9.76 10.3231 9.42 10.6631 9.01 10.6631Z" fill="#292D32"/>
<path d="M9 23.6531C4.73 23.6531 1.25 20.1731 1.25 15.9031C1.25 15.4931 1.59 15.1531 2 15.1531C2.41 15.1531 2.75 15.4931 2.75 15.9031C2.75 18.8631 4.81 21.3431 7.58 21.9931L7.31 21.5431C7.1 21.1831 7.21 20.7231 7.57 20.5131C7.92 20.3031 8.39 20.4131 8.6 20.7731L9.65 22.5231C9.79 22.7531 9.79 23.0431 9.66 23.2731C9.52 23.5031 9.27 23.6531 9 23.6531Z" fill="#292D32"/>
<path d="M22.0001 10.6531C21.5901 10.6531 21.2501 10.3131 21.2501 9.90308C21.2501 6.94308 19.1901 4.46308 16.4201 3.81308L16.6901 4.26308C16.9001 4.62308 16.7901 5.08308 16.4301 5.29308C16.0801 5.50308 15.6101 5.39308 15.4001 5.03308L14.3501 3.28308C14.2101 3.05308 14.2101 2.76308 14.3401 2.53308C14.4801 2.30308 14.7301 2.15308 15.0001 2.15308C19.2701 2.15308 22.7501 5.63308 22.7501 9.90308C22.7501 10.3131 22.4101 10.6531 22.0001 10.6531Z" fill="#292D32"/>
<path d="M16.92 12.7532C14.12 12.7532 11.84 15.0232 11.84 17.8332C11.84 20.6332 14.11 22.9132 16.92 22.9132C19.72 22.9132 22 20.6432 22 17.8332C22 15.0232 19.73 12.7532 16.92 12.7532ZM19.4 20.2432C19.03 20.4232 18.58 20.2832 18.39 19.9032L18.22 19.5632H15.63L15.46 19.9032C15.33 20.1632 15.06 20.3132 14.79 20.3132C14.68 20.3132 14.56 20.2832 14.46 20.2332C14.09 20.0432 13.94 19.5932 14.12 19.2232L16.26 14.9532C16.39 14.7032 16.65 14.5432 16.93 14.5432C17.21 14.5432 17.47 14.7032 17.6 14.9632L19.74 19.2332C19.92 19.6032 19.77 20.0532 19.4 20.2432Z" fill="#292D32"/>
<path d="M16.38 18.0631H17.47L16.92 16.9731L16.38 18.0631Z" fill="#292D32"/>
</g>
<defs>
<clipPath id="clip0_1_219">
<rect width="24" height="22.5854" fill="white" transform="translate(0 0.903076)"/>
</clipPath>
</defs>
</svg>
