<svg width="24" height="23" viewBox="0 0 24 23" fill="none" xmlns="http://www.w3.org/2000/svg">
<g clip-path="url(#clip0_1_215)">
<path d="M21.07 5.34112C19.46 5.19055 17.85 5.07762 16.23 4.99293V4.98352L16.01 3.76014C15.86 2.89436 15.64 1.5957 13.3 1.5957H10.68C8.35004 1.5957 8.13003 2.8379 7.97004 3.75073L7.76004 4.95528C6.83004 5.01175 5.90004 5.06821 4.97004 5.15291L2.93004 5.34112C2.51004 5.37876 2.21004 5.72695 2.25004 6.11279C2.29004 6.49862 2.65004 6.78094 3.07004 6.7433L5.11004 6.55508C10.35 6.06573 15.63 6.25395 20.93 6.75271C20.96 6.75271 20.98 6.75271 21.01 6.75271C21.39 6.75271 21.72 6.4798 21.76 6.11279C21.79 5.72695 21.49 5.37876 21.07 5.34112Z" fill="#292D32"/>
<path d="M19.23 8.07966C18.99 7.8444 18.66 7.71265 18.32 7.71265H5.67999C5.33999 7.71265 4.99999 7.8444 4.76999 8.07966C4.53999 8.31492 4.40999 8.63488 4.42999 8.96425L5.04999 18.6195C5.15999 20.0499 5.29999 21.8379 8.78999 21.8379H15.21C18.7 21.8379 18.84 20.0593 18.95 18.6195L19.57 8.97367C19.59 8.63488 19.46 8.31492 19.23 8.07966ZM13.66 17.1232H10.33C9.91999 17.1232 9.57999 16.8033 9.57999 16.4174C9.57999 16.0316 9.91999 15.7116 10.33 15.7116H13.66C14.07 15.7116 14.41 16.0316 14.41 16.4174C14.41 16.8033 14.07 17.1232 13.66 17.1232ZM14.5 13.359H9.49999C9.08999 13.359 8.74999 13.039 8.74999 12.6532C8.74999 12.2674 9.08999 11.9474 9.49999 11.9474H14.5C14.91 11.9474 15.25 12.2674 15.25 12.6532C15.25 13.039 14.91 13.359 14.5 13.359Z" fill="#292D32"/>
</g>
<defs>
<clipPath id="clip0_1_215">
<rect width="24" height="22.5854" fill="white" transform="translate(0 0.419434)"/>
</clipPath>
</defs>
</svg>
