<svg width="24" height="24" viewBox="0 0 24 24" fill="none" xmlns="http://www.w3.org/2000/svg">
<g clip-path="url(#clip0_1_203)">
<path d="M20.36 12.7C19.99 12.7 19.68 12.4365 19.64 12.0883C19.4 10.018 18.22 8.15467 16.4 6.96894C16.07 6.75249 15.99 6.32902 16.22 6.01847C16.45 5.70792 16.9 5.63263 17.23 5.84908C19.4 7.27008 20.8 9.49097 21.09 11.9471C21.13 12.3236 20.84 12.6623 20.44 12.7C20.41 12.7 20.39 12.7 20.36 12.7Z" fill="#292D32"/>
<path d="M3.74004 12.747C3.72004 12.747 3.69004 12.747 3.67004 12.747C3.27004 12.7094 2.98004 12.3706 3.02004 11.9942C3.29004 9.53804 4.67004 7.31714 6.82004 5.88673C7.14004 5.67029 7.60004 5.74557 7.83004 6.04671C8.06004 6.35726 7.98004 6.78074 7.66004 6.99718C5.86004 8.20174 4.69004 10.065 4.47004 12.126C4.43004 12.4836 4.11004 12.747 3.74004 12.747Z" fill="#292D32"/>
<path d="M15.99 20.5765C14.76 21.1317 13.44 21.4141 12.06 21.4141C10.62 21.4141 9.24998 21.1129 7.96998 20.5012C7.60998 20.3413 7.46998 19.9272 7.64998 19.5884C7.81998 19.2496 8.25998 19.1179 8.61998 19.2779C9.24998 19.579 9.91998 19.786 10.6 19.9084C11.52 20.0778 12.46 20.0872 13.38 19.9366C14.06 19.8237 14.73 19.6261 15.35 19.3437C15.72 19.1838 16.16 19.3155 16.32 19.6637C16.5 20.0025 16.36 20.4165 15.99 20.5765Z" fill="#292D32"/>
<path d="M12.05 2.61182C10.5 2.61182 9.22998 3.79755 9.22998 5.2656C9.22998 6.73365 10.49 7.91939 12.05 7.91939C13.61 7.91939 14.87 6.73365 14.87 5.2656C14.87 3.79755 13.61 2.61182 12.05 2.61182Z" fill="#292D32"/>
<path d="M5.04998 13.7727C3.49998 13.7727 2.22998 14.9584 2.22998 16.4265C2.22998 17.8945 3.48998 19.0803 5.04998 19.0803C6.60998 19.0803 7.86998 17.8945 7.86998 16.4265C7.86998 14.9584 6.59998 13.7727 5.04998 13.7727Z" fill="#292D32"/>
<path d="M18.95 13.7727C17.4 13.7727 16.13 14.9584 16.13 16.4265C16.13 17.8945 17.39 19.0803 18.95 19.0803C20.51 19.0803 21.77 17.8945 21.77 16.4265C21.77 14.9584 20.51 13.7727 18.95 13.7727Z" fill="#292D32"/>
</g>
<defs>
<clipPath id="clip0_1_203">
<rect width="24" height="22.5854" fill="white" transform="translate(0 0.720215)"/>
</clipPath>
</defs>
</svg>
