<svg width="24" height="24" viewBox="0 0 24 24" fill="none" xmlns="http://www.w3.org/2000/svg">
<g clip-path="url(#clip0_1_199)">
<path d="M20 6.85649C21.5188 6.85649 22.75 5.69784 22.75 4.26858C22.75 2.83931 21.5188 1.68066 20 1.68066C18.4812 1.68066 17.25 2.83931 17.25 4.26858C17.25 5.69784 18.4812 6.85649 20 6.85649Z" fill="#292D32"/>
<path d="M19.04 8.17399C17.47 7.85403 16.19 6.64947 15.85 5.17201C15.72 4.59796 15.71 4.04274 15.82 3.51575C15.95 2.93229 15.49 2.38647 14.85 2.38647H7C4.24 2.38647 2 4.49445 2 7.09177V13.6321C2 16.2295 4.24 18.3374 7 18.3374H8.5C8.78 18.3374 9.14 18.5068 9.3 18.7138L10.8 20.5866C11.46 21.4147 12.54 21.4147 13.2 20.5866L14.7 18.7138C14.89 18.4786 15.18 18.3374 15.5 18.3374H17.01C19.77 18.3374 22 16.2389 22 13.6415V9.11505C22 8.52218 21.42 8.08929 20.8 8.20222C20.24 8.29633 19.65 8.29632 19.04 8.17399ZM8 11.7971C7.44 11.7971 7 11.3736 7 10.856C7 10.3384 7.44 9.91495 8 9.91495C8.55 9.91495 9 10.3384 9 10.856C9 11.3736 8.56 11.7971 8 11.7971ZM12 11.7971C11.44 11.7971 11 11.3736 11 10.856C11 10.3384 11.44 9.91495 12 9.91495C12.55 9.91495 13 10.3384 13 10.856C13 11.3736 12.56 11.7971 12 11.7971ZM16 11.7971C15.44 11.7971 15 11.3736 15 10.856C15 10.3384 15.44 9.91495 16 9.91495C16.55 9.91495 17 10.3384 17 10.856C17 11.3736 16.56 11.7971 16 11.7971Z" fill="#292D32"/>
</g>
<defs>
<clipPath id="clip0_1_199">
<rect width="24" height="22.5854" fill="white" transform="translate(0 0.504395)"/>
</clipPath>
</defs>
</svg>
